/* XPM */
static char *bottom_right_inactive[] = {
/* columns rows colors chars-per-pixel */
"10 10 3 1 ",
"@ c black",
". c #2196F3 s inactive_color_1",
"  c None",
/* pixels */
"    ..@@@@",
"    ..@@@@",
"   ..@@@@@",
"  ...@@@@@",
"....@@@@@@",
"..@@@@@@@@",
"@@@@@@@@@@",
"@@@@@@@@@ ",
"@@@@@@@@@ ",
"@@@@@@@   "
};
