/* XPM */
static char *left_active[] = {
/* columns rows colors chars-per-pixel */
"10 20 3 1 ",
"@ c black s active_color_2",
". c #FFF176 s active_color_1", 
"  c None",
/* pixels */
"@@@@..    ",
"@@@@..    ",
"@@@@..    ",
"@@@@..    ",
"@@@@..    ",
"@@@@..    ",
"@@@@..    ",
"@@@@..    ",
"@@@@..    ",
"@@@@..    ",
"@@@@..    ",
"@@@@..    ",
"@@@@..    ",
"@@@@..    ",
"@@@@..    ",
"@@@@..    ",
"@@@@..    ",
"@@@@..    ",
"@@@@..    ",
"@@@@..    "
};
