/* XPM */
static char *right_inactive[] = {
/* columns rows colors chars-per-pixel */
"10 20 3 1 ",
"@ c black",
". c #2196F3 s inactive_color_1",
"  c None",
/* pixels */
"    ..@@@@",
"    ..@@@@",
"    ..@@@@",
"    ..@@@@",
"    ..@@@@",
"    ..@@@@",
"    ..@@@@",
"    ..@@@@",
"    ..@@@@",
"    ..@@@@",
"    ..@@@@",
"    ..@@@@",
"    ..@@@@",
"    ..@@@@",
"    ..@@@@",
"    ..@@@@",
"    ..@@@@",
"    ..@@@@",
"    ..@@@@",
"    ..@@@@"
};
