/* XPM */
static char * left_inactive_xpm[] = {
"5 24 2 1",
"       c None",
".      c #C0C0FF s inactive_color_1",
"...  ",
"...  ",
"...  ",
"...  ",
"...  ",
"...  ",
"...  ",
"...  ",
"...  ",
"...  ",
"...  ",
"...  ",
"...  ",
"...  ",
"...  ",
"...  ",
"...  ",
"...  ",
"...  ",
"...  ",
"...  ",
"...  ",
"...  ",
"...  "};
