/* XPM */
static char * right_active_xpm[] = {
"5 24 2 1",
"       c None",
".      c #C0C0FF s active_color_1",
"  ...",
"  ...",
"  ...",
"  ...",
"  ...",
"  ...",
"  ...",
"  ...",
"  ...",
"  ...",
"  ...",
"  ...",
"  ...",
"  ...",
"  ...",
"  ...",
"  ...",
"  ...",
"  ...",
"  ...",
"  ...",
"  ...",
"  ...",
"  ..."};
