/* XPM */
static char *bottom_right_active[] = {
/* columns rows colors chars-per-pixel */
"10 10 3 1 ",
"@ c black",
". c #FFF176",
"  c None",
/* pixels */
"    ..@@@@",
"    ..@@@@",
"    ..@@@@",
"    ..@@@@",
"......@@@@",
"......@@@@",
"@@@@@@@@@@",
"@@@@@@@@@@",
"@@@@@@@@@@",
"@@@@@@@@@@"
};
