/* XPM */
static char *left_inactive[] = {
/* columns rows colors chars-per-pixel */
"10 20 3 1 ",
"@ c black",
". c #2196F3",
"  c None",
/* pixels */
"@@@@..    ",
"@@@@..    ",
"@@@@..    ",
"@@@@..    ",
"@@@@..    ",
"@@@@..    ",
"@@@@..    ",
"@@@@..    ",
"@@@@..    ",
"@@@@..    ",
"@@@@..    ",
"@@@@..    ",
"@@@@..    ",
"@@@@..    ",
"@@@@..    ",
"@@@@..    ",
"@@@@..    ",
"@@@@..    ",
"@@@@..    ",
"@@@@..    "
};
