/* XPM */
static char *right_active[] = {
/* columns rows colors chars-per-pixel */
"10 20 3 1 ",
"@ c black",
". c #FFF176",
"  c None",
/* pixels */
"    ..@@@@",
"    ..@@@@",
"    ..@@@@",
"    ..@@@@",
"    ..@@@@",
"    ..@@@@",
"    ..@@@@",
"    ..@@@@",
"    ..@@@@",
"    ..@@@@",
"    ..@@@@",
"    ..@@@@",
"    ..@@@@",
"    ..@@@@",
"    ..@@@@",
"    ..@@@@",
"    ..@@@@",
"    ..@@@@",
"    ..@@@@",
"    ..@@@@"
};
